HIERARCHY
ROOT Hips
{
  OFFSET 1.44925e-005 102.336 -0.101585
  CHANNELS 6 Xposition Yposition Zposition Zrotation Xrotation Yrotation
  JOINT LeftUpLeg
  {
    OFFSET 8.9458 -8.66707 0.101652
    CHANNELS 3 Zrotation Xrotation Yrotation
    JOINT LeftLeg
    {
      OFFSET 0 -44.4227 1.3727
      CHANNELS 3 Zrotation Xrotation Yrotation
      JOINT LeftFoot
      {
        OFFSET -0.253549 -42.0924 -1.46059
        CHANNELS 3 Zrotation Xrotation Yrotation
        JOINT LeftToes
        {
          OFFSET -0.04 -4.41509 8.4991
          CHANNELS 3 Zrotation Xrotation Yrotation
          End Site
          {
            OFFSET 0.08 -0.047448 9.77979
          }
        }
      }
    }
  }
  JOINT Spine
  {
    OFFSET 0 11.8905 0
    CHANNELS 3 Zrotation Xrotation Yrotation
    JOINT Spine1
    {
      OFFSET 0 25.6574 0.127663
      CHANNELS 3 Zrotation Xrotation Yrotation
      JOINT RightShoulder
      {
        OFFSET -8.99 -0.362252 -0.22
        CHANNELS 3 Zrotation Xrotation Yrotation
        JOINT RightArm
        {
          OFFSET -10.2827 -0.00338 0.322123
          CHANNELS 3 Zrotation Xrotation Yrotation
          JOINT RightForeArm
          {
            OFFSET -26.364 0.099144 -1.42434
            CHANNELS 3 Zrotation Xrotation Yrotation
            JOINT RightHand
            {
              OFFSET -22.0324 0.085362 1.02216
              CHANNELS 3 Zrotation Xrotation Yrotation
              End Site
              {
                OFFSET -13.3284 -0.6 1.50291
              }
            }
          }
        }
      }
      JOINT LeftShoulder1
      {
        OFFSET 8.99 -0.362252 -0.22
        CHANNELS 3 Zrotation Xrotation Yrotation
        JOINT LeftArm
        {
          OFFSET 10.2827 -0.00337999 0.322123
          CHANNELS 3 Zrotation Xrotation Yrotation
          JOINT LeftForeArm
          {
            OFFSET 26.2597 0.099144 -1.42434
            CHANNELS 3 Zrotation Xrotation Yrotation
            JOINT LeftHand
            {
              OFFSET 22.0902 0.085362 1.02216
              CHANNELS 3 Zrotation Xrotation Yrotation
              End Site
              {
                OFFSET 13.419 -0.6 1.50291
              }
            }
          }
        }
      }
      JOINT Head
      {
        OFFSET 0 8.73416 0.011341
        CHANNELS 3 Zrotation Xrotation Yrotation
        End Site
        {
          OFFSET -0.29 12.7742 2.51395
        }
      }
    }
  }
  JOINT RightUpLeg
  {
    OFFSET -8.9458 -8.66707 0.101652
    CHANNELS 3 Zrotation Xrotation Yrotation
    JOINT RightLeg
    {
      OFFSET 0 -44.4227 1.3727
      CHANNELS 3 Zrotation Xrotation Yrotation
      JOINT RightFoot
      {
        OFFSET 0.253549 -42.0924 -1.46059
        CHANNELS 3 Zrotation Xrotation Yrotation
        JOINT RightToes
        {
          OFFSET 0.04 -4.41509 8.4991
          CHANNELS 3 Zrotation Xrotation Yrotation
          End Site
          {
            OFFSET -0.08 -0.137448 9.77979
          }
        }
      }
    }
  }
}
MOTION
Frames:	10
Frame Time:	0.0333333
57.7567 93.1451 -4.08545 0.828699 -0.0154629 -95.6167 4.78015 -44.2553 -0.794976 1.31655 49.2243 16.4609 -12.9858 -15.4248 -0.822946 -1.28575e-009 8.75272e-006 -1.47884e-008 2.3259 46.8697 -1.2773 4.29076 1.71304 -1.9213 34.2694 1.79449 0.403063 35.2384 -16.4884 7.54943 -6.71807 25.8682 69.7452 -18.7944 8.67772 2.40793 -36.8556 2.84505 -3.11002 -39.5652 -15.6761 -45.3928 29.9061 17.5989 -103.781 5.82328 9.61819 -0.917488 1.65511 -44.9546 4.36114 5.73298 -28.9766 3.26116 -1.32176 50.7023 -14.422 2.43496 -25.8964 0.107111 0.0462048 0.000530889 0.662642 
56.5305 92.9365 -3.87138 0.458487 -0.112976 -96.4438 5.44262 -43.9493 -0.103097 1.26975 43.0214 18.3561 -11.6176 -14.2876 -0.616152 -1.28575e-009 8.75272e-006 -1.47884e-008 1.56405 46.9427 -1.10773 4.00618 1.79439 -1.95141 34.7083 1.79733 0.371221 34.8885 -16.6724 5.75666 -6.88846 26.0135 69.1449 -18.2218 8.72791 2.33681 -36.6521 2.8263 -3.09874 -39.5831 -15.6415 -45.3564 29.5674 17.206 -104.512 5.82328 9.61819 -0.917488 1.65873 -44.8341 4.97053 5.78262 -28.1374 4.1354 -1.34734 51.5711 -14.4522 3.05532 -27.1127 0.236374 0.0462048 0.000530889 0.662642 
55.2984 92.6648 -3.57515 0.157345 -0.25038 -97.291 6.03768 -43.5687 1.01074 1.24317 37.5006 20.0783 -10.1225 -12.6852 -0.390077 -1.28575e-009 8.75272e-006 -1.47884e-008 0.700865 47.0865 -0.894691 3.7601 1.88446 -1.96807 34.886 1.79832 0.359219 34.931 -16.7941 4.251 -7.33491 26.2498 68.6513 -17.6485 8.77093 2.31058 -36.5055 2.81238 -3.08953 -39.6248 -15.5314 -45.0908 29.187 16.8753 -105.161 5.82328 9.61819 -0.917488 1.51793 -44.6729 5.42354 5.76797 -27.4829 5.07281 -1.38442 52.6346 -14.5373 3.73739 -28.3358 0.391792 0.0462048 0.000530889 0.662642 
54.0427 92.3239 -3.19865 -0.132582 -0.344249 -98.2665 6.7373 -43.026 2.6866 1.23253 33.0074 21.6853 -9.33407 -11.2759 -0.245698 -1.28575e-009 8.75272e-006 -1.47884e-008 -0.274987 47.375 -0.593719 3.55883 2.02056 -1.9507 34.884 1.79829 0.355502 35.2918 -16.6989 3.21309 -7.61682 26.4469 68.0711 -17.6162 8.75636 2.42544 -36.3549 2.79765 -3.07898 -39.6636 -15.4429 -44.5942 28.7735 16.6144 -105.714 5.82328 9.61819 -0.917488 1.34197 -44.5904 5.8077 5.86922 -26.9252 6.24357 -1.43907 53.8773 -14.7869 4.42685 -29.4359 0.560784 0.0462048 0.000530889 0.662642 
52.7003 91.9112 -2.71392 -0.405082 -0.226035 -99.5588 7.62417 -42.0896 4.59037 1.26016 29.7461 23.6576 -8.54588 -10.8302 -0.188616 -1.28575e-009 8.75272e-006 -1.47884e-008 -1.00966 47.7463 -0.319321 3.07827 2.21668 -1.81425 34.9634 1.79772 0.344625 35.7505 -16.4157 2.63291 -7.57657 26.5399 67.391 -17.8755 8.72071 2.54669 -36.2123 2.7834 -3.06819 -39.5504 -15.4191 -43.8373 28.3479 16.4695 -106.083 5.82328 9.61819 -0.917488 1.35518 -44.6093 6.22338 6.24705 -26.3169 7.74255 -1.49566 55.1668 -14.9834 5.23677 -30.5504 0.770914 0.0462048 0.000530889 0.662642 
51.2379 91.4681 -2.09275 -0.477137 0.109718 -101.147 8.46423 -41.016 5.9046 1.31831 27.9259 25.9021 -6.85341 -10.416 -0.121409 -1.28575e-009 8.75272e-006 -1.47884e-008 -1.37657 48.0213 -0.180978 2.23352 2.43011 -1.5708 35.1251 1.79714 0.33296 36.2573 -16.0652 2.40709 -7.45517 26.58 66.8353 -17.8688 8.73336 2.46332 -36.2463 2.78589 -3.06865 -39.1883 -15.4927 -42.7321 28.0837 16.4151 -106.257 5.82328 9.61819 -0.917488 1.53849 -44.6261 6.79776 6.81349 -25.7271 9.49203 -1.53531 56.3271 -14.8813 6.30092 -31.8427 1.06473 0.0462048 0.000530889 0.662642 
49.6848 91.0497 -1.36259 -0.151512 0.441013 -102.597 8.95204 -40.6214 6.20576 1.3733 27.7532 27.6622 -4.83766 -7.98611 0.0155975 -1.28575e-009 8.75272e-006 -1.47884e-008 -1.66599 48.1379 -0.157309 1.54769 2.54221 -1.43028 35.2021 1.79705 0.328858 36.8324 -15.7136 2.52763 -7.54598 26.6534 66.6089 -17.6504 8.77399 2.2886 -36.5245 2.81222 -3.08612 -38.756 -15.6473 -41.3511 28.0706 16.4035 -106.281 5.82328 9.61819 -0.917488 1.65379 -44.7064 7.54902 7.29407 -25.3942 11.225 -1.56804 57.2955 -14.7228 7.55366 -33.1853 1.43365 0.0462048 0.000530889 0.662642 
48.0757 90.6864 -0.599134 0.54415 0.593168 -103.502 9.15518 -41.3747 6.16195 1.40547 29.042 28.2868 -3.78868 -3.28995 0.153042 -1.28575e-009 8.75272e-006 -1.47884e-008 -2.09502 48.2197 -0.111526 1.50516 2.48957 -1.51739 35.2627 1.79795 0.321504 37.3405 -15.4739 2.99815 -7.87333 26.7693 66.7218 -17.6935 8.76179 2.35147 -36.8611 2.84492 -3.10884 -38.4995 -15.6679 -40.1643 28.1588 16.5033 -106.08 5.82328 9.61819 -0.917488 1.65722 -45.1131 8.24465 7.55487 -25.3377 12.767 -1.62226 58.0786 -15.01 8.86512 -34.3219 1.83516 0.0462048 0.000530889 0.662642 
46.4115 90.4101 0.154862 1.4002 0.62477 -104.004 9.45428 -42.7607 6.79008 1.42463 31.0792 27.9978 -3.74971 1.26377 0.26941 -1.28575e-009 8.75272e-006 -1.47884e-008 -2.51549 48.4056 0.0854492 1.83462 2.38432 -1.61448 35.4803 1.8005 0.304308 37.7148 -15.5137 3.73215 -8.15299 26.8383 66.9907 -18.0166 8.70305 2.59877 -37.1093 2.869 -3.12519 -38.3215 -15.2903 -39.6836 28.2756 16.7833 -105.555 5.82328 9.61819 -0.917488 1.77739 -45.9297 8.61934 7.70163 -25.2576 14.2594 -1.6938 58.5688 -15.7753 10.2725 -35.2177 2.26997 0.0462048 0.000530889 0.662642 
44.6879 90.2602 0.916309 2.25313 0.597882 -104.488 9.84875 -44.0146 8.13683 1.43926 33.2622 27.4045 -3.48341 3.22636 0.295627 -1.28575e-009 8.75272e-006 -1.47884e-008 -2.82629 48.6615 0.440885 1.91698 2.3597 -1.47275 35.719 1.80677 0.297036 38.2235 -15.7603 4.70973 -8.12551 26.7953 67.1757 -18.1706 8.68277 2.66142 -37.3982 2.89631 -3.14223 -37.8907 -14.5928 -39.8043 28.5622 17.1305 -104.869 5.82328 9.61819 -0.917488 2.08827 -46.9099 8.71068 7.73757 -24.9334 15.8008 -1.74731 58.6308 -16.5688 11.8032 -36.0101 2.75247 0.0462048 0.000530889 0.662642 
